#!OML:ASF H:\Punching\Project 1\Capture day 1\Session 1\female.ASF
:FULLY-SPECIFIED
:DEGREES
1521
root -0.685382 14.6252 5.67249 9.60859 -18.1445 1.66032
lowerback 1.75476 -2.38046 -2.08396
upperback -4.4628 -3.42672 -2.41655
thorax -5.63649 -1.6783 -1.11369
lowerneck 0.0675119 12.4772 22.0995
upperneck 28.1114 18.9993 -12.5113
head 12.8124 9.79472 -5.93415
rclavicle 8.02096e-014 2.22639e-014
rhumerus 12.0387 37.8457 -80.8374
rradius 129.81
rwrist -37.0172
rhand -19.6265 -4.25295
rfingers 7.12502
rthumb 6.70039 -34.1269
lclavicle 8.02096e-014 2.22639e-014
lhumerus 9.54612 -0.053296 60.0188
lradius 114.459
lwrist 33.4461
lhand -12.8929 36.8134
lfingers 7.12502
lthumb 13.1965 66.3757
rfemur -49.0251 11.3237 6.6263
rtibia 46.1729
rfoot -16.3108 4.33109
rtoes -12.1962
lfemur 11.9017 -1.60323 -10.6155
ltibia 19.6228
lfoot -18.2531 3.83827
ltoes -36.2014
1522
root -0.706696 14.6356 5.68047 9.49947 -16.6117 2.11766
lowerback 1.84064 -2.22372 -2.28323
upperback -4.40658 -3.22671 -2.44849
thorax -5.61609 -1.57019 -1.0466
lowerneck -0.580287 11.9718 21.3257
upperneck 28.4178 18.1658 -12.2332
head 12.7536 9.35088 -5.84078
rclavicle 3.20789e-014 1.59028e-014
rhumerus 12.3582 37.3652 -80.6047
rradius 129.835
rwrist -37.4127
rhand -19.7619 -4.30352
rfingers 7.12502
rthumb 6.56971 -34.1816
lclavicle 3.20789e-014 1.59028e-014
lhumerus 8.75572 -0.996917 60.9804
lradius 118.022
lwrist 32.7631
lhand -11.7869 35.9033
lfingers 7.12502
lthumb 14.2623 65.3936
rfemur -48.7005 10.7211 6.09542
rtibia 46.6454
rfoot -16.2919 3.65412
rtoes -11.7526
lfemur 11.2814 -2.21012 -10.5131
ltibia 19.7938
lfoot -17.942 3.06792
ltoes -36.0848
1523
root -0.73081 14.6461 5.6892 9.4249 -14.8839 2.50815
lowerback 1.9311 -2.06641 -2.40705
upperback -4.34397 -3.02111 -2.45574
thorax -5.59504 -1.46202 -0.996358
lowerneck -1.25911 11.4183 20.5027
upperneck 28.7582 17.2595 -11.8988
head 12.6993 8.87412 -5.72478
rclavicle 5.46161e-014 1.98785e-014
rhumerus 12.6433 36.8152 -80.3388
rradius 129.89
rwrist -37.7459
rhand -19.9089 -4.38903
rfingers 7.12502
rthumb 6.42774 -34.2715
lclavicle 5.46161e-014 1.98785e-014
lhumerus 8.07337 -1.95936 62.0128
lradius 121.319
lwrist 31.9596
lhand -10.796 35.001
lfingers 7.12502
lthumb 15.217 64.4213
rfemur -48.2843 10.0445 5.64365
rtibia 47.1143
rfoot -16.2823 2.86457
rtoes -11.319
lfemur 10.5385 -2.86309 -10.2958
ltibia 20.0816
lfoot -17.679 2.30044
ltoes -35.8896
1524
root -0.756977 14.6567 5.6989 9.39275 -12.9808 2.79749
lowerback 2.03105 -1.90652 -2.4133
upperback -4.28704 -2.80572 -2.43464
thorax -5.59004 -1.35328 -0.982686
lowerneck -1.93916 10.8116 19.6399
upperneck 29.1176 16.2752 -11.5018
head 12.6404 8.36523 -5.58632
rclavicle 2.08724e-015 2.54444e-014
rhumerus 12.8592 36.2076 -80.0701
rradius 129.988
rwrist -38.0027
rhand -20.0898 -4.52308
rfingers 7.12502
rthumb 6.25313 -34.4108
lclavicle 2.08724e-015 2.54444e-014
lhumerus 7.49102 -2.94943 63.0872
lradius 124.363
lwrist 31.1913
lhand -10.04 34.2169
lfingers 7.12502
lthumb 15.9451 63.5806
rfemur -47.7722 9.29533 5.31452
rtibia 47.5539
rfoot -16.2747 1.99274
rtoes -10.8944
lfemur 9.66115 -3.54549 -9.93228
ltibia 20.5158
lfoot -17.4808 1.53795
ltoes -35.6352
1525
root -0.784691 14.6675 5.70988 9.40117 -10.922 2.96762
lowerback 2.13096 -1.73518 -2.27072
upperback -4.23051 -2.56677 -2.39497
thorax -5.59084 -1.2388 -1.03475
lowerneck -2.62341 10.1495 18.7622
upperneck 29.4784 15.2039 -11.0392
head 12.5747 7.82306 -5.4278
rclavicle 3.22777e-014 -4.77083e-015
rhumerus 13.0043 35.5101 -79.8155
rradius 130.131
rwrist -38.2059
rhand -20.2925 -4.68007
rfingers 7.12502
rthumb 6.05741 -34.5735
lclavicle 3.22777e-014 -4.77083e-015
lhumerus 7.0433 -3.99973 64.1712
lradius 127.155
lwrist 30.568
lhand -9.60039 33.6265
lfingers 7.12502
lthumb 16.3684 62.9558
rfemur -47.1628 8.47389 5.13527
rtibia 47.9464
rfoot -16.2687 1.06469
rtoes -10.4735
lfemur 8.64188 -4.2367 -9.40325
ltibia 21.114
lfoot -17.3542 0.77038
ltoes -35.3414
1526
root -0.813453 14.6785 5.72228 9.43637 -8.71396 3.02479
lowerback 2.23581 -1.5521 -1.97863
upperback -4.18104 -2.30421 -2.34236
thorax -5.60598 -1.11864 -1.1589
lowerneck -3.29065 9.42692 17.8786
upperneck 29.8282 14.0378 -10.5056
head 12.4961 7.24695 -5.2497
rclavicle -2.03754e-014 -4.37326e-015
rhumerus 13.0535 34.7318 -79.5968
rradius 130.337
rwrist -38.3455
rhand -20.5529 -4.87955
rfingers 7.12502
rthumb 5.806 -34.78
lclavicle -2.03754e-014 -4.37326e-015
lhumerus 6.72473 -5.14232 65.2412
lradius 129.69
lwrist 30.1507
lhand -9.48821 33.2356
lfingers 7.12502
lthumb 16.4764 62.556
rfemur -46.4511 7.56713 5.10761
rtibia 48.2845
rfoot -16.2667 0.0982327
rtoes -10.0484
lfemur 7.48161 -4.91976 -8.70994
ltibia 21.8693
lfoot -17.2833 -0.0179584
ltoes -35.0326
